<svg width="77" height="15" viewBox="0 0 77 15" fill="none" xmlns="http://www.w3.org/2000/svg">
<path d="M7.42768 12.4144L6.55219 10.2523C6.4494 10.2331 6.10858 10.1297 6.10858 10.1297L5.14111 9.44671C5.14111 9.44671 7.59719 9.86529 7.84605 9.86529C7.9831 9.86529 8.11654 9.8758 8.23916 9.88631C8.34736 9.89419 8.45015 9.90295 8.54031 9.90295C8.61759 9.91083 8.6956 9.8978 8.76572 9.86529C8.95958 9.73044 8.97761 9.58595 8.97851 9.54742L8.96589 9.47123L8.974 9.46072L8.84867 7.32579L9.77556 7.04032C9.71364 6.87735 9.64013 6.71876 9.55556 6.56569C9.4654 6.39056 9.35269 6.17514 9.20302 5.82836L9.16695 5.74079L9.8531 4.62254L10.6114 3.22144C10.6411 3.28886 10.6231 8.86876 10.6114 11.4328C10.6114 12.0405 10.2309 12.4127 9.5186 12.4127L7.42768 12.4144Z" fill="#016699"/>
<path d="M3.03748 11.397L0.899799 11.3852C0.4499 11.3852 2.16562e-10 10.9457 1.79389e-10 10.4388L1.5503e-10 10.1067L2.61047 10.1067L3.57895 7.99286L3.03748 11.397Z" fill="#016699"/>
<path d="M2.07434 9.19305L6.74225e-10 9.19305L0.0141101 2.07635C0.0141101 0.887901 0.719667 0.319893 1.73126 0.319893L8.59015 0.319893C9.06993 0.319893 9.42447 0.516511 9.57176 0.787407L7.80786 3.3548C7.3272 2.63212 6.56873 1.8037 4.96271 1.8037C4.02784 1.8037 3.13796 2.19869 2.45534 2.91613C1.78431 3.61876 1.40626 4.54681 1.397 5.51411C1.39541 6.15516 1.5711 6.78439 1.905 7.33348L3.58952 4.52402L4.81013 5.43284L6.35177 2.53425L7.97631 4.28197L10.8082 6.1036e-05C10.8082 6.1036e-05 11.4203 1.01024 10.9247 1.83516L8.01424 6.24378L6.57049 4.73025L5.20965 7.27406L3.85146 6.21669L2.07434 9.19305Z" fill="#495057"/>
<path d="M17.928 1.90619L17.5916 3.86963L19.0973 3.86963L18.8593 5.21431L17.376 5.21431L16.7896 8.36342C16.7617 8.49118 16.7473 8.62152 16.7465 8.75231C16.7358 8.8476 16.7502 8.94405 16.7884 9.03201C16.8265 9.11997 16.887 9.19636 16.9638 9.25354C17.1402 9.35499 17.3419 9.40358 17.5451 9.39354C17.6547 9.39341 17.7643 9.38532 17.8728 9.36934C17.9744 9.35468 18.0752 9.33448 18.1746 9.30885L18.0763 10.5567C17.9157 10.618 17.7492 10.6626 17.5796 10.6898C17.4087 10.7204 17.2357 10.7366 17.0621 10.7382C16.3538 10.7382 15.8502 10.5965 15.5513 10.313C15.4016 10.1674 15.2842 9.99178 15.2069 9.79758C15.1297 9.60338 15.0942 9.39502 15.1028 9.18613C15.1028 9.05708 15.1097 8.91535 15.1235 8.76095C15.1363 8.6175 15.1576 8.47494 15.1873 8.33404C15.1873 8.33404 15.9307 3.99753 16.0928 3.12816C16.255 2.25878 17.928 1.90619 17.928 1.90619Z" fill="#016699"/>
<path d="M45.6271 1.90619L45.2825 3.87001L46.7934 3.87001L46.5711 5.21496L45.0896 5.21496L44.5038 8.36469C44.4773 8.49266 44.4635 8.62294 44.4625 8.75365C44.4517 8.84837 44.4657 8.94429 44.5032 9.03191C44.5407 9.11952 44.6003 9.19582 44.6761 9.25325C44.8516 9.35495 45.0526 9.40358 45.2549 9.39328C45.3651 9.39308 45.475 9.385 45.584 9.36908C45.6849 9.35442 45.785 9.33422 45.8837 9.30857L45.7855 10.5567C45.6251 10.618 45.4589 10.6626 45.2894 10.6898C45.1188 10.7204 44.9459 10.7366 44.7726 10.7382C44.0639 10.7382 43.5609 10.5965 43.2634 10.313C43.1142 10.1672 42.9973 9.99141 42.9205 9.79718C42.8436 9.60296 42.8084 9.39463 42.8173 9.18583C42.8173 9.05675 42.8241 8.915 42.8379 8.76056C42.8501 8.61712 42.8708 8.47453 42.8999 8.33357C42.8999 8.33357 43.6424 3.99621 43.8061 3.12667C43.9698 2.25712 45.6271 1.90619 45.6271 1.90619Z" fill="#016699"/>
<path d="M60.0182 1.90619L59.6802 3.86963L61.1987 3.86963L60.9612 5.21431L59.4705 5.21431L58.8794 8.36342C58.8528 8.49137 58.8388 8.62163 58.8378 8.75231C58.8272 8.84742 58.8416 8.94365 58.8796 9.03153C58.9176 9.11942 58.9778 9.19593 59.0545 9.25354C59.2317 9.35499 59.4345 9.40358 59.6386 9.39354C59.7494 9.39335 59.8601 9.38526 59.9697 9.36934C60.0713 9.35469 60.172 9.33449 60.2713 9.30885L60.1725 10.5567C60.0111 10.618 59.8438 10.6626 59.6733 10.6898C59.5016 10.7204 59.3277 10.7366 59.1533 10.7382C58.4403 10.7382 57.9342 10.5965 57.6349 10.313C57.4847 10.1673 57.3671 9.99156 57.2898 9.79737C57.2124 9.60318 57.177 9.39489 57.1859 9.18613C57.1859 9.05708 57.1929 8.91535 57.2067 8.76095C57.219 8.61753 57.2398 8.47498 57.2691 8.33404C57.2691 8.33404 58.0162 3.99753 58.1809 3.12816C58.3455 2.25878 60.0182 1.90619 60.0182 1.90619Z" fill="#016699"/>
<path d="M25.2183 10.6281C25.2183 10.6281 26.6495 2.28264 26.8742 1.19938C27.0989 0.116125 28.7375 2.58537e-10 28.7375 2.58537e-10L26.8586 10.6281L25.2183 10.6281Z" fill="#016699"/>
<path d="M46.812 10.6281C46.812 10.6281 48.2347 2.28264 48.4584 1.19938C48.682 0.116125 50.3129 2.5719e-10 50.3129 2.5719e-10L48.4446 10.6281L46.812 10.6281Z" fill="#016699"/>
<path d="M29.9686 7.75921C29.9592 7.80982 29.9546 7.86119 29.9548 7.91266C29.9526 8.12516 29.9979 8.33546 30.0875 8.52815C30.1759 8.71323 30.3021 8.87769 30.4581 9.01088C30.6244 9.15 30.8141 9.25857 31.0183 9.33156C31.242 9.41259 31.4784 9.45288 31.7163 9.45052C32.0731 9.46206 32.4266 9.38003 32.7419 9.2126C33.0435 9.05399 33.1676 8.81779 33.4107 8.54711L34.9257 8.44884C33.7778 10.597 32.7281 10.7936 31.5354 10.7936C31.1074 10.7985 30.6817 10.7297 30.2771 10.5901C29.9108 10.4652 29.5733 10.2683 29.2843 10.0108C29.0001 9.75215 28.776 9.43438 28.6276 9.07985C28.4625 8.67877 28.3815 8.24805 28.3897 7.81438C28.3854 7.2623 28.4848 6.71432 28.6827 6.19894C28.8697 5.71504 29.1477 5.27145 29.5015 4.8921C29.8509 4.51725 30.2748 4.21953 30.7459 4.018C31.2421 3.80417 31.7776 3.69669 32.3179 3.70249C32.6953 3.70015 33.0706 3.75835 33.4296 3.8749C33.7574 3.97894 34.0598 4.15042 34.3173 4.37833C34.5746 4.60912 34.7756 4.89573 34.9051 5.21622C35.052 5.59044 35.1235 5.99006 35.1153 6.39203C35.1153 6.5403 35.0998 6.74892 35.0723 7.01442C35.0473 7.2664 35.0053 7.51639 34.9464 7.76266L29.9686 7.75921ZM33.6054 6.58341C33.6146 6.51789 33.6215 6.45755 33.6261 6.40238C33.6261 6.34548 33.6261 6.29031 33.6261 6.22997C33.6289 6.05805 33.5962 5.8874 33.5301 5.72869C33.464 5.56999 33.3658 5.42663 33.2418 5.3076C33.0952 5.1758 32.9238 5.07454 32.7377 5.00971C32.5515 4.94488 32.3543 4.9178 32.1576 4.93003C31.8889 4.9262 31.6224 4.97845 31.3751 5.08347C31.151 5.18049 30.9452 5.31519 30.7666 5.48173C30.5984 5.63962 30.4544 5.82145 30.3392 6.02136C30.2367 6.19497 30.1617 6.38339 30.1168 6.57996L33.6054 6.58341Z" fill="#016699"/>
<path d="M49.5962 14.3504C49.7687 14.1773 51.6196 10.6228 51.6196 10.6228L50.1085 3.87048L51.8715 3.87048L52.734 8.81353L52.7616 8.81353L55.4491 3.87048L57.1845 3.87048C57.1845 3.87048 51.3626 14.108 51.1935 14.3504L49.5962 14.3504Z" fill="#016699"/>
<path d="M61.1274 10.6287L62.2944 3.87048L63.9318 3.87048L62.7512 10.6287L61.1274 10.6287Z" fill="#016699"/>
<path d="M62.4463 3.38356C62.7817 1.86863 64.4625 1.61066 64.4625 1.61066L64.1112 3.38356C64.1112 3.38356 63.0241 3.39394 62.4463 3.38356Z" fill="#016699"/>
<path d="M69.343 5.78655C69.2035 5.56907 69.0101 5.39111 68.7815 5.26984C68.5305 5.12542 68.2453 5.0505 67.9555 5.05282C67.6235 5.04998 67.2951 5.12181 66.9948 5.26295C66.7051 5.40001 66.4473 5.59596 66.238 5.83822C65.8023 6.34879 65.5629 6.99709 65.5624 7.66737C65.5616 7.89253 65.5942 8.11657 65.6591 8.33221C65.7228 8.53843 65.828 8.7295 65.9684 8.89369C66.1148 9.06189 66.2965 9.19595 66.5006 9.28639C66.744 9.38979 67.0068 9.43972 67.2713 9.4328C67.623 9.44851 67.9729 9.37377 68.2873 9.21578C68.5476 9.07083 68.7862 8.88991 68.9957 8.6784L69.9357 9.6257C69.585 9.97342 69.1756 10.2568 68.7262 10.4628C68.237 10.6791 67.7061 10.7856 67.1711 10.7745C66.7205 10.7801 66.2723 10.709 65.8458 10.5644C65.4684 10.4364 65.1206 10.2344 64.8228 9.97017C64.539 9.71695 64.3143 9.40476 64.1645 9.0556C64.0054 8.68039 63.9265 8.27621 63.933 7.86889C63.9324 7.33335 64.032 6.80239 64.2267 6.30326C64.4168 5.81081 64.6975 5.3581 65.0544 4.96843C65.4184 4.57591 65.8595 4.26225 66.3503 4.04696C66.8821 3.81394 67.4576 3.69651 68.0385 3.70249C68.5307 3.70032 69.0188 3.79271 69.4761 3.97462C69.9065 4.14157 70.2704 4.44393 70.5128 4.8358L69.343 5.78655Z" fill="#016699"/>
<path d="M23.5426 6.34681C23.5599 6.23461 23.572 6.1483 23.5771 6.08788C23.5823 6.02747 23.5771 5.96877 23.5771 5.91526C23.5895 5.78129 23.567 5.64639 23.5119 5.52362C23.4568 5.40084 23.3709 5.29435 23.2625 5.21442C22.9777 5.05688 22.6537 4.98437 22.3288 5.00555C21.9816 5.00898 21.6376 5.07265 21.3122 5.19371C20.98 5.30951 20.6662 5.47227 20.3803 5.67705L19.7492 4.57055C20.1497 4.29068 20.592 4.07571 21.0597 3.93358C21.5475 3.78016 22.056 3.70216 22.5674 3.70227C22.8861 3.70298 23.2038 3.73829 23.5149 3.80757C23.8132 3.87238 24.0976 3.98926 24.3552 4.15281C24.603 4.30761 24.8099 4.51954 24.9586 4.77079C25.1165 5.06487 25.1941 5.39531 25.1834 5.72883C25.1834 5.81341 25.1834 5.91699 25.1695 6.03782C25.1612 6.14558 25.1468 6.25278 25.1263 6.3589L24.6353 9.08629C24.5886 9.34868 24.5488 9.61796 24.516 9.89933C24.4866 10.1313 24.4704 10.3647 24.4676 10.5984L22.953 10.5984C22.9544 10.3304 22.9827 10.0633 23.0377 9.80094L23.0083 9.80094C22.4862 10.4258 21.7571 10.7383 20.8211 10.7383C20.5757 10.7369 20.331 10.7092 20.0915 10.6554C19.8451 10.6028 19.6106 10.5051 19.3999 10.3671C19.1899 10.2287 19.0167 10.0416 18.8951 9.82166C18.7546 9.55623 18.6866 9.25855 18.698 8.95856C18.6752 8.47391 18.8328 7.99798 19.1406 7.62247C19.4518 7.26834 19.8438 6.99421 20.2834 6.82325C20.782 6.62424 21.3056 6.4947 21.8395 6.4383C22.405 6.37539 22.9736 6.34484 23.5426 6.34681V6.34681ZM23.1968 7.52408C22.8786 7.52408 22.5484 7.53616 22.2078 7.5586C21.89 7.57867 21.5753 7.63248 21.269 7.71914C21.0127 7.78845 20.7737 7.91012 20.567 8.07646C20.4768 8.15259 20.4053 8.24834 20.3579 8.35637C20.3106 8.46439 20.2886 8.58182 20.2938 8.69963C20.2887 8.83807 20.3197 8.97546 20.3837 9.09838C20.4426 9.20383 20.527 9.29286 20.6292 9.35731C20.7352 9.42409 20.8523 9.47144 20.975 9.49713C21.1085 9.52643 21.2447 9.54091 21.3813 9.54028C21.6233 9.54162 21.8636 9.49892 22.0902 9.41427C22.3013 9.3346 22.4963 9.21766 22.666 9.06903C22.8308 8.92643 22.9705 8.75721 23.0792 8.56843C23.1879 8.37378 23.2661 8.16361 23.3109 7.94528L23.3939 7.52581L23.1968 7.52408Z" fill="#016699"/>
<path d="M75.3632 6.34681C75.3822 6.23461 75.3926 6.1483 75.3978 6.08788C75.403 6.02747 75.3978 5.96877 75.3978 5.91526C75.4102 5.78129 75.3877 5.64639 75.3325 5.52362C75.2773 5.40084 75.1913 5.29435 75.0828 5.21442C74.7977 5.05688 74.4733 4.98437 74.1481 5.00555C73.8005 5.00898 73.4561 5.07265 73.1304 5.19371C72.7979 5.30951 72.4837 5.47227 72.1975 5.67705L71.5657 4.57055C71.9667 4.29068 72.4095 4.07571 72.8777 3.93358C73.366 3.78016 73.875 3.70216 74.387 3.70227C74.706 3.70298 75.0241 3.73829 75.3355 3.80757C75.634 3.87238 75.9188 3.98926 76.1766 4.15281C76.4228 4.30993 76.6275 4.52363 76.7738 4.77597C76.9319 5.07005 77.0095 5.40049 76.9988 5.73401C76.9988 5.81859 76.9988 5.92217 76.9849 6.043C76.9766 6.15076 76.9622 6.25796 76.9417 6.36408L76.457 9.08629C76.4103 9.34868 76.3705 9.61796 76.3393 9.89933C76.3095 10.1312 76.2927 10.3647 76.2891 10.5984L74.7729 10.5984C74.7743 10.3304 74.8027 10.0633 74.8578 9.80094L74.8301 9.80094C74.3051 10.4258 73.5746 10.7383 72.6388 10.7383C72.3931 10.7369 72.1482 10.7092 71.9084 10.6554C71.6618 10.6028 71.427 10.5051 71.2161 10.3671C71.0059 10.2287 70.8325 10.0416 70.7107 9.82166C70.5701 9.55623 70.502 9.25855 70.5134 8.95856C70.4906 8.47391 70.6484 7.99798 70.9565 7.62247C71.268 7.26834 71.6604 6.99421 72.1006 6.82325C72.5996 6.62424 73.1238 6.4947 73.6583 6.4383C74.2244 6.37539 74.7936 6.34484 75.3632 6.34681V6.34681ZM75.017 7.52408C74.6985 7.52408 74.3679 7.53616 74.027 7.5586C73.7089 7.57867 73.3938 7.63248 73.0871 7.71914C72.8306 7.78845 72.5913 7.91012 72.3844 8.07646C72.2471 8.2041 72.1551 8.3728 72.1223 8.55713C72.0896 8.74146 72.1178 8.93143 72.2027 9.09838C72.2604 9.20412 72.3445 9.29328 72.4467 9.35731C72.553 9.42383 72.6702 9.47116 72.7929 9.49713C72.927 9.52652 73.064 9.54099 73.2014 9.54028C73.4431 9.54165 73.683 9.49894 73.9093 9.41427C74.1206 9.3346 74.3158 9.21766 74.4856 9.06903C74.6506 8.92643 74.7905 8.75721 74.8993 8.56843C75.0081 8.37378 75.0864 8.16361 75.1312 7.94528L75.216 7.52581L75.017 7.52408Z" fill="#016699"/>
<path d="M37.8561 4.85329C38.0925 4.48107 38.4078 4.16534 38.7799 3.92843C39.1853 3.68315 39.6529 3.55974 40.1267 3.57299C40.4719 3.56511 40.8154 3.62369 41.1385 3.74553C41.4065 3.84868 41.6496 4.00747 41.8516 4.21141C42.0422 4.4072 42.1867 4.64298 42.2747 4.9016C42.3669 5.17095 42.4136 5.45378 42.4128 5.73846C42.4144 5.95783 42.3947 6.17683 42.3541 6.39241L41.5823 10.7423L39.8798 10.7423L40.5497 6.90315C40.5687 6.78582 40.586 6.67021 40.5998 6.55806C40.614 6.44356 40.6215 6.32833 40.6222 6.21296C40.6277 5.91989 40.5407 5.63253 40.3736 5.39163C40.209 5.15352 39.9085 5.03446 39.4723 5.03446C39.2156 5.02884 38.9612 5.08382 38.7298 5.19493C38.5171 5.30046 38.3266 5.44572 38.1686 5.62285C38.008 5.80345 37.8754 6.007 37.7749 6.22677C37.675 6.4467 37.6042 6.67872 37.5643 6.91696L36.8736 10.7561L35.1729 10.7561L36.1346 5.27258C36.1864 4.12341 37.9545 3.77314 37.9545 3.77314C37.9442 3.88012 37.9252 4.04749 37.8958 4.27525C37.8665 4.50301 37.8423 4.69972 37.8233 4.86537L37.8561 4.85329Z" fill="#016699"/>
</svg>
